<svg id="Layer_1" data-name="Layer 1" xmlns="http://www.w3.org/2000/svg" viewBox="0 0 1000 1000"><defs><style>.cls-1{font-size:242.2px;}.cls-1,.cls-2,.cls-3{fill:#9f9174;}.cls-1,.cls-2{font-family:Montserrat-Regular, Montserrat;}.cls-2{font-size:45.17px;}</style></defs><g id="Layer_3" data-name="Layer 3"><text class="cls-1" transform="translate(150.29 791.34)">LAYAL</text><path class="cls-3" d="M331.77,170.43c-.58,85.3,18.45,161.41,89.4,216.72l-1.83,2.33c-4.65-1.9-9.53-3.36-13.91-5.75C367.42,363,345.18,330,332,289.63c-13.62-41.75-18.57-84.54-16.16-128.21.29-5.21,2.45-12.86,6.05-14.6,3.44-1.67,10.93,1.66,14.86,4.94,30.49,25.42,60.55,51.36,90.75,77.14,1.62,1.38,3.21,2.81,4.06,3.56,24.22-34.45,48.3-68.57,72.23-102.8,8-11.49,12.93-11.55,20.92-.13,24,34.25,48,68.41,71.81,102.23,21.56-18.93,43.82-38.93,66.62-58.3,10.72-9.1,22.28-17.26,33.84-25.3,8-5.57,14.08-2.69,14.85,7,5,62.58-4,122.61-35.1,178-13.87,24.64-35.56,41.46-60.5,54.18a21.46,21.46,0,0,1-6.15,1.55c-.41.08-1-.84-2.27-2,70.41-54.85,89.58-130.82,89-216.62-3.28,1.58-5.65,2.16-7.29,3.59-26.94,23.49-53.9,46.94-80.46,70.86-2.77,2.49-5.1,8.54-4,11.73,14.57,43.51,3.91,83.32-16.69,121.88-7.61,14.23-13.23,28.78-1.52,43.42,9.57,12,30.72,14.9,48.25,8.1,17.09-6.63,28.38-19.18,37.42-37.26,1.16,3.91,2.2,5.48,2,6.83-4.08,22.46-14.44,40.48-37.73,47-22.78,6.41-44.73,4.81-62.24-13.5-11.25-11.76-13-26.66-8.92-41.56,2.94-10.66,8.25-20.73,13.07-30.79,12.61-26.33,19.7-53.5,13.8-82.85-.69-3.42-1.83-6.74-3.68-13.39-16.55,21.22-30.92,41-46.73,59.52-14.79,17.34-18.68,33.11-5.61,54.38,13.63,22.15,19.86,47.93,22.08,74.19,3.16,37.36-7.43,69.77-34.34,96.61-7.38,7.37-12.87,6.91-20-.2-31.39-31.39-39.54-69.3-32.16-111.73,4.63-26.61,14.37-51.43,27.5-74.87,4-7.2,4.44-12.71-.71-19.56-19-25.29-37.6-50.93-57.92-75.78-7.35,15.34-9.39,30.77-5.73,45.61,4.62,18.76,12.05,36.83,18.35,55.17a43.06,43.06,0,0,0,2.91,5.8c11.69,22.6,11.38,44.47-1.88,58.86-17.56,19-39.84,20.6-63,14.07-21.07-5.93-35.82-25.44-37.51-47.16-.1-1.26.51-2.56,1.39-6.54,3.15,5.14,5,8.34,7.05,11.47,14.11,22,39.65,33.71,61,28,21.49-5.8,29.93-21.23,22-42.22-4.72-12.45-11.48-24.1-16.7-36.37-13.35-31.38-16.07-63.4-5.37-96.26,1-3.07.36-8.57-1.74-10.45-28.22-25.29-56.83-50.14-85.39-75C335.54,171.17,334.32,171.17,331.77,170.43ZM515.23,333.15a8.11,8.11,0,0,0,1.7-1.48c20.65-26.39,41.37-52.71,61.69-79.35,1.88-2.46,2.83-8,1.36-10.3-20.8-32.66-42.1-65-64.43-99.2-8.25,11.25-14.67,19.42-20.45,28-15.29,22.7-30.55,45.43-45.13,68.59-2,3.16-1.85,10.22.38,13.07C471.4,279.43,493.12,305.86,515.23,333.15Zm-1.29,200.7c42.53-36.48,32.82-110.49.18-161.63C479.2,431.22,474.66,496.57,513.94,533.85Z"/></g></svg>