<svg width="215" height="91" viewBox="0 0 215 91" fill="none" xmlns="http://www.w3.org/2000/svg">
<rect x="10" y="12" width="196" height="71" fill="white" stroke="#D9D9D9" stroke-width="4"/>
<rect x="186" y="6" width="28" height="18" fill="#FAAD1B" stroke="black" stroke-width="2"/>
<rect x="1" y="1" width="28" height="18" fill="#FAAD1B" stroke="black" stroke-width="2"/>
<rect x="186" y="72" width="28" height="18" fill="#FAAD1B" stroke="black" stroke-width="2"/>
<rect x="1" y="72" width="28" height="18" fill="#FAAD1B" stroke="black" stroke-width="2"/>
<path d="M42.7216 56V38.5455H45.8835V45.9347H53.9716V38.5455H57.142V56H53.9716V48.5852H45.8835V56H42.7216ZM66.2401 56.2557C64.9276 56.2557 63.794 55.983 62.8395 55.4375C61.8906 54.8864 61.1605 54.108 60.6491 53.1023C60.1378 52.0909 59.8821 50.9006 59.8821 49.5312C59.8821 48.1847 60.1378 47.0028 60.6491 45.9858C61.1662 44.9631 61.8878 44.1676 62.8139 43.5994C63.7401 43.0256 64.8281 42.7386 66.0781 42.7386C66.8849 42.7386 67.6463 42.8693 68.3622 43.1307C69.0838 43.3864 69.7202 43.7841 70.2713 44.3239C70.8281 44.8636 71.2656 45.5511 71.5838 46.3864C71.902 47.2159 72.0611 48.2045 72.0611 49.3523V50.2983H61.331V48.2188H69.1037C69.098 47.6278 68.9702 47.1023 68.7202 46.642C68.4702 46.1761 68.1207 45.8097 67.6719 45.5426C67.2287 45.2756 66.7116 45.142 66.1207 45.142C65.4901 45.142 64.9361 45.2955 64.4588 45.6023C63.9815 45.9034 63.6094 46.3011 63.3423 46.7955C63.081 47.2841 62.9474 47.821 62.9418 48.4062V50.2216C62.9418 50.983 63.081 51.6364 63.3594 52.1818C63.6378 52.7216 64.027 53.1364 64.527 53.4261C65.027 53.7102 65.6122 53.8523 66.2827 53.8523C66.7315 53.8523 67.1378 53.7898 67.5014 53.6648C67.8651 53.5341 68.1804 53.3438 68.4474 53.0938C68.7145 52.8438 68.9162 52.5341 69.0526 52.1648L71.9332 52.4886C71.7514 53.25 71.4048 53.9148 70.8935 54.483C70.3878 55.0455 69.7401 55.483 68.9503 55.7955C68.1605 56.1023 67.2571 56.2557 66.2401 56.2557ZM77.7564 38.5455V56H74.6712V38.5455H77.7564ZM84.0142 38.5455V56H80.929V38.5455H84.0142ZM92.897 56.2557C91.6186 56.2557 90.5107 55.9744 89.5732 55.4119C88.6357 54.8494 87.9084 54.0625 87.3913 53.0511C86.88 52.0398 86.6243 50.858 86.6243 49.5057C86.6243 48.1534 86.88 46.9687 87.3913 45.9517C87.9084 44.9347 88.6357 44.1449 89.5732 43.5824C90.5107 43.0199 91.6186 42.7386 92.897 42.7386C94.1754 42.7386 95.2834 43.0199 96.2209 43.5824C97.1584 44.1449 97.8828 44.9347 98.3942 45.9517C98.9112 46.9687 99.1697 48.1534 99.1697 49.5057C99.1697 50.858 98.9112 52.0398 98.3942 53.0511C97.8828 54.0625 97.1584 54.8494 96.2209 55.4119C95.2834 55.9744 94.1754 56.2557 92.897 56.2557ZM92.9141 53.7841C93.6072 53.7841 94.1868 53.5937 94.6527 53.2131C95.1186 52.8267 95.4652 52.3097 95.6925 51.6619C95.9254 51.0142 96.0419 50.2926 96.0419 49.4972C96.0419 48.696 95.9254 47.9716 95.6925 47.3239C95.4652 46.6705 95.1186 46.1506 94.6527 45.7642C94.1868 45.3778 93.6072 45.1847 92.9141 45.1847C92.2038 45.1847 91.6129 45.3778 91.1413 45.7642C90.6754 46.1506 90.326 46.6705 90.093 47.3239C89.8658 47.9716 89.7521 48.696 89.7521 49.4972C89.7521 50.2926 89.8658 51.0142 90.093 51.6619C90.326 52.3097 90.6754 52.8267 91.1413 53.2131C91.6129 53.5937 92.2038 53.7841 92.9141 53.7841ZM107.111 41.196V38.5455H121.037V41.196H115.642V56H112.506V41.196H107.111ZM126.67 48.3295V56H123.585V38.5455H126.602V45.1335H126.756C127.063 44.3949 127.537 43.8125 128.179 43.3864C128.827 42.9545 129.651 42.7386 130.651 42.7386C131.56 42.7386 132.352 42.929 133.028 43.3097C133.705 43.6903 134.227 44.2472 134.597 44.9801C134.972 45.7131 135.159 46.608 135.159 47.6648V56H132.074V48.142C132.074 47.2614 131.847 46.5767 131.392 46.0881C130.943 45.5937 130.312 45.3466 129.5 45.3466C128.955 45.3466 128.466 45.4659 128.034 45.7045C127.608 45.9375 127.273 46.2756 127.028 46.7188C126.79 47.1619 126.67 47.6989 126.67 48.3295ZM144.099 56.2557C142.787 56.2557 141.653 55.983 140.699 55.4375C139.75 54.8864 139.02 54.108 138.509 53.1023C137.997 52.0909 137.741 50.9006 137.741 49.5312C137.741 48.1847 137.997 47.0028 138.509 45.9858C139.026 44.9631 139.747 44.1676 140.673 43.5994C141.599 43.0256 142.688 42.7386 143.938 42.7386C144.744 42.7386 145.506 42.8693 146.222 43.1307C146.943 43.3864 147.58 43.7841 148.131 44.3239C148.688 44.8636 149.125 45.5511 149.443 46.3864C149.761 47.2159 149.92 48.2045 149.92 49.3523V50.2983H139.19V48.2188H146.963C146.957 47.6278 146.83 47.1023 146.58 46.642C146.33 46.1761 145.98 45.8097 145.531 45.5426C145.088 45.2756 144.571 45.142 143.98 45.142C143.349 45.142 142.795 45.2955 142.318 45.6023C141.841 45.9034 141.469 46.3011 141.202 46.7955C140.94 47.2841 140.807 47.821 140.801 48.4062V50.2216C140.801 50.983 140.94 51.6364 141.219 52.1818C141.497 52.7216 141.886 53.1364 142.386 53.4261C142.886 53.7102 143.472 53.8523 144.142 53.8523C144.591 53.8523 144.997 53.7898 145.361 53.6648C145.724 53.5341 146.04 53.3438 146.307 53.0938C146.574 52.8438 146.776 52.5341 146.912 52.1648L149.793 52.4886C149.611 53.25 149.264 53.9148 148.753 54.483C148.247 55.0455 147.599 55.483 146.81 55.7955C146.02 56.1023 145.116 56.2557 144.099 56.2557ZM152.531 56V42.9091H155.522V45.0909H155.658C155.897 44.3352 156.306 43.7528 156.886 43.3438C157.471 42.929 158.138 42.7216 158.888 42.7216C159.059 42.7216 159.249 42.7301 159.46 42.7472C159.675 42.7585 159.854 42.7784 159.996 42.8068V45.6449C159.866 45.5994 159.658 45.5597 159.374 45.5256C159.096 45.4858 158.826 45.4659 158.565 45.4659C158.002 45.4659 157.496 45.5881 157.048 45.8324C156.604 46.071 156.255 46.4034 155.999 46.8295C155.744 47.2557 155.616 47.7472 155.616 48.304V56H152.531ZM167.303 56.2557C165.99 56.2557 164.857 55.983 163.902 55.4375C162.953 54.8864 162.223 54.108 161.712 53.1023C161.2 52.0909 160.945 50.9006 160.945 49.5312C160.945 48.1847 161.2 47.0028 161.712 45.9858C162.229 44.9631 162.95 44.1676 163.876 43.5994C164.803 43.0256 165.891 42.7386 167.141 42.7386C167.947 42.7386 168.709 42.8693 169.425 43.1307C170.146 43.3864 170.783 43.7841 171.334 44.3239C171.891 44.8636 172.328 45.5511 172.646 46.3864C172.964 47.2159 173.124 48.2045 173.124 49.3523V50.2983H162.393V48.2188H170.166C170.161 47.6278 170.033 47.1023 169.783 46.642C169.533 46.1761 169.183 45.8097 168.734 45.5426C168.291 45.2756 167.774 45.142 167.183 45.142C166.553 45.142 165.999 45.2955 165.521 45.6023C165.044 45.9034 164.672 46.3011 164.405 46.7955C164.143 47.2841 164.01 47.821 164.004 48.4062V50.2216C164.004 50.983 164.143 51.6364 164.422 52.1818C164.7 52.7216 165.089 53.1364 165.589 53.4261C166.089 53.7102 166.675 53.8523 167.345 53.8523C167.794 53.8523 168.2 53.7898 168.564 53.6648C168.928 53.5341 169.243 53.3438 169.51 53.0938C169.777 52.8438 169.979 52.5341 170.115 52.1648L172.996 52.4886C172.814 53.25 172.467 53.9148 171.956 54.483C171.45 55.0455 170.803 55.483 170.013 55.7955C169.223 56.1023 168.32 56.2557 167.303 56.2557Z" fill="black"/>
</svg>
